<svg width="18" height="12" viewBox="0 0 18 12" fill="none" xmlns="http://www.w3.org/2000/svg">
<path fill-rule="evenodd" clip-rule="evenodd" d="M16.6667 0.666687H15.6667C15.1144 0.666687 14.6667 1.1144 14.6667 1.66669V10.3334C14.6667 10.8856 15.1144 11.3334 15.6667 11.3334H16.6667C17.2189 11.3334 17.6667 10.8856 17.6667 10.3334V1.66669C17.6667 1.1144 17.2189 0.666687 16.6667 0.666687ZM11 3.00002H12C12.5523 3.00002 13 3.44774 13 4.00002V10.3334C13 10.8856 12.5523 11.3334 12 11.3334H11C10.4477 11.3334 9.99999 10.8856 9.99999 10.3334V4.00002C9.99999 3.44774 10.4477 3.00002 11 3.00002ZM7.33332 5.33335H6.33332C5.78104 5.33335 5.33332 5.78107 5.33332 6.33335V10.3334C5.33332 10.8856 5.78104 11.3334 6.33332 11.3334H7.33332C7.88561 11.3334 8.33332 10.8856 8.33332 10.3334V6.33335C8.33332 5.78107 7.88561 5.33335 7.33332 5.33335ZM2.66666 7.33335H1.66666C1.11437 7.33335 0.666656 7.78107 0.666656 8.33335V10.3334C0.666656 10.8856 1.11437 11.3334 1.66666 11.3334H2.66666C3.21894 11.3334 3.66666 10.8856 3.66666 10.3334V8.33335C3.66666 7.78107 3.21894 7.33335 2.66666 7.33335Z" fill="#101010"/>
</svg>
