<svg width="20" height="20" viewBox="0 0 20 20" fill="none" xmlns="http://www.w3.org/2000/svg">
<path d="M2.50001 2.5L5.49098 5.49097M17.5 17.5L14.5093 14.5093M11.5624 15.6872C11.0564 15.7831 10.5343 15.8333 10.0004 15.8333C6.26902 15.8333 3.11043 13.3809 2.04855 9.99997C2.33763 9.07958 2.7821 8.22801 3.35121 7.47598M8.23224 8.23223C8.68465 7.77982 9.30965 7.5 10 7.5C11.3807 7.5 12.5 8.61929 12.5 10C12.5 10.6904 12.2202 11.3154 11.7678 11.7678M8.23224 8.23223L11.7678 11.7678M8.23224 8.23223L5.49098 5.49097M11.7678 11.7678L5.49098 5.49097M11.7678 11.7678L14.5093 14.5093M5.49098 5.49097C6.79083 4.65295 8.33881 4.16667 10.0004 4.16667C13.7318 4.16667 16.8903 6.61909 17.9522 10C17.3631 11.8756 16.1288 13.4654 14.5093 14.5093" stroke="#101010" stroke-width="2" stroke-linecap="round" stroke-linejoin="round"/>
</svg>
